
<svg width="821px" height="463px" viewBox="0 0 821 463" version="1.1" xmlns="http://www.w3.org/2000/svg" xmlns:xlink="http://www.w3.org/1999/xlink">
    <!-- Generator: Sketch 46.2 (44496) - http://www.bohemiancoding.com/sketch -->
    <desc>Created with Sketch.</desc>
    <defs>
        <filter x="-2.2%" y="-5.1%" width="104.3%" height="108.3%" filterUnits="objectBoundingBox" id="filter-1">
            <feOffset dx="0" dy="-6" in="SourceAlpha" result="shadowOffsetOuter1"></feOffset>
            <feGaussianBlur stdDeviation="3.5" in="shadowOffsetOuter1" result="shadowBlurOuter1"></feGaussianBlur>
            <feColorMatrix values="0 0 0 0 0   0 0 0 0 0.429487179   0 0 0 0 1  0 0 0 1 0" type="matrix" in="shadowBlurOuter1" result="shadowMatrixOuter1"></feColorMatrix>
            <feMerge>
                <feMergeNode in="shadowMatrixOuter1"></feMergeNode>
                <feMergeNode in="SourceGraphic"></feMergeNode>
            </feMerge>
        </filter>
        <path d="M96.3457031,0.92578125 C96.3457031,0.92578125 167.151586,21.7387188 226.063477,32.2783203 C284.975367,42.8179219 333.344727,41.5976563 364.654297,45.6630859 C407.761719,54.3916016 765.523437,76.7138672 783.069336,78.4785156 C800.615234,80.2431641 800.396484,79.8173828 800.986816,86.9121094 C798.825814,93.7999497 793.713978,106.9933 789.371532,120.134456 C765.697266,200.974609 731.991211,229.410156 759.374023,263.844727 C775.109375,295.027344 790.871094,314.438477 804.101562,345.566406 C708.099609,373.214844 684.674805,383.238281 566.976562,411.394531 C488.552734,435.19043 414.510742,415.362305 335.857422,414.734375 C275.857422,411.105469 97,395.277344 97,395.277344 L0.6171875,386.802734 C0.6171875,386.802734 25.1660156,233.826172 46.9941406,165.047852 C64.8003728,93.2718027 96.3457031,0.92578125 96.3457031,0.92578125 Z" id="path-2"></path>
        <filter x="-0.9%" y="-1.2%" width="101.7%" height="103.3%" filterUnits="objectBoundingBox" id="filter-3">
            <feOffset dx="0" dy="2" in="SourceAlpha" result="shadowOffsetOuter1"></feOffset>
            <feMorphology radius="4" operator="erode" in="SourceAlpha" result="shadowInner"></feMorphology>
            <feOffset dx="0" dy="2" in="shadowInner" result="shadowInner"></feOffset>
            <feComposite in="shadowOffsetOuter1" in2="shadowInner" operator="out" result="shadowOffsetOuter1"></feComposite>
            <feGaussianBlur stdDeviation="2" in="shadowOffsetOuter1" result="shadowBlurOuter1"></feGaussianBlur>
            <feColorMatrix values="0 0 0 0 1   0 0 0 0 1   0 0 0 0 1  0 0 0 0.5 0" type="matrix" in="shadowBlurOuter1"></feColorMatrix>
        </filter>
    </defs>
    <g id="Page-1" stroke="none" stroke-width="1" fill="none" fill-rule="evenodd">
        <g id="001" transform="translate(-369.000000, -116.000000)">
            <g id="Group-9" transform="translate(377.000000, 116.000000)">
                <g>
                    <g id="Group-8" filter="url(#filter-1)" transform="translate(0.000000, 34.000000)">
                        <g id="Rectangle-11">
                            <use fill="black" fill-opacity="1" filter="url(#filter-3)" xlink:href="#path-2"></use>
                            <path stroke="#397CD5" stroke-width="4" d="M97.6243828,3.38048381 C97.6008472,3.45002388 97.5769211,3.5207375 97.5526063,3.59262021 C96.9927324,5.24779512 96.3431716,7.1784817 95.6114,9.36603696 C93.5202271,15.6173807 91.1898979,22.6725529 88.680225,30.3823887 C81.5097093,52.4105575 74.3392274,75.2683394 67.6474443,97.7616315 C64.8702799,107.096598 62.2291929,116.192605 59.7443774,124.999224 C55.6517528,139.504199 52.0258622,153.071507 48.9352992,165.529415 L48.9004392,165.652852 C46.787336,172.311037 44.5978399,179.922362 42.3395478,188.426221 C37.1098311,208.119322 31.5904849,232.282731 25.8971401,259.924035 C20.1666447,287.745705 14.5684947,317.559066 9.33195593,347.37304 C7.49908458,357.808402 5.84237738,367.498223 4.39043914,376.193811 C3.88232557,379.236878 3.43612406,381.938164 3.05540917,384.266587 C3.01381897,384.520949 2.97395528,384.765089 2.93583169,384.998889 L97.1763025,393.28513 C97.287549,393.294974 97.287549,393.294974 97.8313456,393.343024 C98.5848714,393.40956 99.01082,393.447144 99.744764,393.511836 C101.841832,393.696679 104.279814,393.9111 107.032527,394.152634 C114.897558,394.842743 123.707319,395.611728 133.25234,396.439867 C160.523743,398.805971 188.222686,401.172071 214.67326,403.380399 C218.591811,403.707554 222.459276,404.029244 226.272172,404.345143 C276.242072,408.485147 314.373051,411.430274 335.925887,412.73486 C356.03363,412.896992 372.220267,413.948545 407.104393,416.903914 C431.263045,418.950626 441.423473,419.725034 454.52274,420.377554 C498.314397,422.55897 532.483686,419.770557 566.395853,409.480693 L566.511244,409.449415 C620.678246,396.491365 656.784034,386.969928 694.501018,375.966155 C698.12547,374.908736 701.832629,373.818436 705.7207,372.667017 C711.926644,370.829179 718.219123,368.9478 726.947767,366.324905 C729.40406,365.586806 738.519367,362.845432 737.967121,363.01148 C742.498339,361.649049 745.986837,360.601419 749.471349,359.557225 C768.067702,353.98451 783.864804,349.322402 801.368536,344.272756 C795.982036,331.884339 790.265661,321.312732 781.013436,305.840843 C779.798547,303.809264 775.563352,296.769504 775.39709,296.492524 C773.130367,292.71634 771.386864,289.781904 769.681401,286.859706 C765.319591,279.386034 761.619052,272.675159 758.07797,265.712004 C757.945109,265.450746 757.812591,265.189347 757.680409,264.927786 C754.854414,261.351665 752.634233,257.795694 750.976101,254.197317 C745.271905,241.818416 746.04327,229.290799 752.453754,211.174164 C754.816218,204.497618 756.830549,199.623905 763.366733,184.374048 C769.661367,169.687761 773.130672,161.261935 777.080627,150.679328 C780.91744,140.399849 784.345675,130.179975 787.472527,119.506937 C787.526293,119.344306 787.526293,119.344306 787.580158,119.181682 C788.398349,116.712622 789.278324,114.13493 790.243385,111.371352 C790.820917,109.717515 797.553448,90.996759 798.960347,86.681893 C798.671504,83.299827 798.523725,82.9538476 797.561972,82.518701 C796.020225,81.8211359 794.997288,81.6882384 782.869199,80.4684767 C779.146712,80.094094 628.991405,69.9504816 571.933678,65.8663517 C555.19005,64.6678611 539.295698,63.5092854 524.242471,62.388127 C435.964055,55.813186 379.985989,50.7892066 364.327398,47.6374398 C355.95582,46.5530343 346.82827,45.843538 330.683404,44.8941783 C328.481191,44.7646825 320.706694,44.3155358 319.677688,44.2555656 C315.167805,43.992731 311.573415,43.7763559 308.014724,43.5506761 C298.894506,42.9723036 290.822055,42.3798788 282.823659,41.6793634 C262.889993,39.9335333 244.332872,37.5785519 225.71126,34.2470619 C217.521132,32.7818112 208.84318,31.0725446 199.738331,29.1423658 C189.020245,26.8701892 177.821137,24.3156234 166.274884,21.5291582 C149.340126,17.4422814 132.496776,13.0639967 116.519204,8.68566693 C110.926759,7.15317086 105.841644,5.73003257 101.360743,4.4526827 C99.9638717,4.05448297 98.7155683,3.69601184 97.6243828,3.38048381 Z"></path>
                        </g>
                        <path d="M333.669922,413.554688 C333.669922,413.554688 352.307617,295.706055 361.013672,234.171875 C370.266602,173.467773 364.865234,46.8691406 364.865234,46.8691406" id="Path-41" stroke="#397CD5" stroke-width="4"></path>
                    </g>
                    <g id="Group-7" transform="translate(745.000000, 188.000000)">
                        <g id="Group-6" transform="translate(7.000000, 106.000000)" stroke="#397CD5">
                            <circle id="Oval" stroke-width="3" fill="#FFFFFF" cx="11.7" cy="11.7" r="4.5"></circle>
                            <circle id="Stroke" stroke-width="0.6" cx="12" cy="12" r="9.3"></circle>
                            <circle id="Stroke" stroke-width="0.6" opacity="0.372842817" cx="12" cy="12" r="12.3"></circle>
                        </g>
                        <rect id="Rectangle-9" fill="#397CD5" x="18" y="70" width="2" height="44"></rect>
                        <rect id="Rectangle-10" fill="#397CD5" x="0" y="0" width="37" height="84" rx="8"></rect>
                        <text id="石-清-大-道" font-family=".PingFangSC-Regular, .PingFang SC" font-size="18" font-weight="normal" letter-spacing="0.287999988" fill="#FFFFFF">
                            <tspan x="9.37000001" y="21">石</tspan>
                            <tspan x="9.37000001" y="39">清</tspan>
                            <tspan x="9.37000001" y="57">大</tspan>
                            <tspan x="9.37000001" y="75">道</tspan>
                        </text>
                    </g>
                    <g id="Group-7-Copy" transform="translate(347.000000, 99.000000)">
                        <g id="Group-6" transform="translate(6.000000, 110.000000)" stroke="#397CD5">
                            <circle id="Oval" stroke-width="3" fill="#FFFFFF" cx="11.7" cy="11.7" r="4.5"></circle>
                            <circle id="Stroke" stroke-width="0.6" cx="12" cy="12" r="9.3"></circle>
                            <circle id="Stroke" stroke-width="0.6" opacity="0.372842817" cx="12" cy="12" r="12.3"></circle>
                        </g>
                        <rect id="Rectangle-9" fill="#397CD5" x="17" y="74" width="2" height="44"></rect>
                        <rect id="Rectangle-10" fill="#397CD5" x="0" y="0" width="35" height="88" rx="8"></rect>
                        <text id="东环二路" font-family=".PingFangSC-Regular, .PingFang SC" font-size="18" font-weight="normal" letter-spacing="0.287999988" fill="#FFFFFF">
                            <tspan x="9" y="25">东</tspan>
                            <tspan x="9" y="43">环</tspan>
                            <tspan x="9" y="61">二</tspan>
                            <tspan x="9" y="79">路</tspan>
                        </text>
                    </g>
                    <g id="Group-7-Copy-2" transform="translate(217.000000, 0.000000)">
                        <g id="Group-6" transform="translate(38.000000, 61.000000)" stroke="#397CD5">
                            <circle id="Oval" stroke-width="3" fill="#FFFFFF" cx="11.7" cy="11.7" r="4.5"></circle>
                            <circle id="Stroke" stroke-width="0.6" cx="12" cy="12" r="9.3"></circle>
                            <circle id="Stroke" stroke-width="0.6" opacity="0.372842817" cx="12" cy="12" r="12.3"></circle>
                        </g>
                        <rect id="Rectangle-9" fill="#397CD5" x="49" y="25" width="2" height="44"></rect>
                        <rect id="Rectangle-10" fill="#397CD5" x="0" y="0" width="101" height="39" rx="8"></rect>
                        <text id="龙观路" font-family=".PingFangSC-Regular, .PingFang SC" font-size="18" font-weight="normal" letter-spacing="0.287999988" fill="#FFFFFF">
                            <tspan x="21.11" y="25">龙观路</tspan>
                        </text>
                    </g>
                    <g id="Group-7-Copy-3" transform="translate(38.000000, 40.000000)">
                        <g id="Group-6" transform="translate(9.000000, 107.000000)" stroke="#397CD5">
                            <circle id="Oval" stroke-width="3" fill="#FFFFFF" cx="11.7" cy="11.7" r="4.5"></circle>
                            <circle id="Stroke" stroke-width="0.6" cx="12" cy="12" r="9.3"></circle>
                            <circle id="Stroke" stroke-width="0.6" opacity="0.372842817" cx="12" cy="12" r="12.3"></circle>
                        </g>
                        <rect id="Rectangle-9" fill="#397CD5" x="20" y="71" width="2" height="44"></rect>
                        <rect id="Rectangle-10" fill="#397CD5" x="0" y="0" width="42" height="85" rx="8"></rect>
                        <text id="东环一路" font-family=".PingFangSC-Regular, .PingFang SC" font-size="18" font-weight="normal" letter-spacing="0.287999988" fill="#FFFFFF">
                            <tspan x="12.37" y="22">东</tspan>
                            <tspan x="12.37" y="40">环</tspan>
                            <tspan x="12.37" y="58">一</tspan>
                            <tspan x="12.37" y="76">路</tspan>
                        </text>
                    </g>
                    <g id="Group-7-Copy-4" transform="translate(60.000000, 354.000000)">
                        <g id="Group-6" transform="translate(38.000000, 61.000000)" stroke="#397CD5">
                            <circle id="Oval" stroke-width="3" fill="#FFFFFF" cx="11.7" cy="11.7" r="4.5"></circle>
                            <circle id="Stroke" stroke-width="0.6" cx="12" cy="12" r="9.3"></circle>
                            <circle id="Stroke" stroke-width="0.6" opacity="0.372842817" cx="12" cy="12" r="12.3"></circle>
                        </g>
                        <rect id="Rectangle-9" fill="#397CD5" x="49" y="25" width="2" height="44"></rect>
                        <rect id="Rectangle-10" fill="#397CD5" x="0" y="0" width="101" height="39" rx="8"></rect>
                        <text id="和平路" font-family=".PingFangSC-Regular, .PingFang SC" font-size="18" font-weight="normal" letter-spacing="0.287999988" fill="#FFFFFF">
                            <tspan x="23.11" y="25">和平路</tspan>
                        </text>
                    </g>
                </g>
            </g>
        </g>
    </g>
</svg>
