
<svg width="877px" height="429px" viewBox="0 0 877 429" version="1.1" xmlns="http://www.w3.org/2000/svg" xmlns:xlink="http://www.w3.org/1999/xlink">
    <!-- Generator: Sketch 46.2 (44496) - http://www.bohemiancoding.com/sketch -->
    <desc>Created with Sketch.</desc>
    <defs>
        <linearGradient x1="15.2040135%" y1="0%" x2="100%" y2="91.0046875%" id="linearGradient-1">
            <stop stop-color="#F7B300" offset="0%"></stop>
            <stop stop-color="#E07500" offset="100%"></stop>
        </linearGradient>
        <path d="M55.875,30.5 L94.4150984,30.5 C97.7204823,30.5 100.408163,27.8142256 100.408163,24.501155 L100.408163,6.49884495 C100.408163,3.18870147 97.7249767,0.5 94.4150984,0.5 L6.40122811,0.5 C3.09584422,0.5 0.408163265,3.18577437 0.408163265,6.49884495 L0.408163265,24.501155 C0.408163265,27.8112985 3.09134979,30.5 6.40122811,30.5 L44.125,30.5 L50,42.25 L55.875,30.5 Z" id="path-2"></path>
        <filter x="-18.0%" y="-26.8%" width="136.0%" height="180.4%" filterUnits="objectBoundingBox" id="filter-4">
            <feOffset dx="0" dy="6" in="SourceAlpha" result="shadowOffsetOuter1"></feOffset>
            <feGaussianBlur stdDeviation="5" in="shadowOffsetOuter1" result="shadowBlurOuter1"></feGaussianBlur>
            <feComposite in="shadowBlurOuter1" in2="SourceAlpha" operator="out" result="shadowBlurOuter1"></feComposite>
            <feColorMatrix values="0 0 0 0 0   0 0 0 0 0   0 0 0 0 0  0 0 0 0.229761096 0" type="matrix" in="shadowBlurOuter1"></feColorMatrix>
        </filter>
        <linearGradient x1="50%" y1="90.6186531%" x2="50%" y2="0%" id="linearGradient-5">
            <stop stop-color="#FFFFFF" stop-opacity="0.16" offset="0%"></stop>
            <stop stop-color="#FFFFFF" stop-opacity="0.874300672" offset="100%"></stop>
        </linearGradient>
        <path d="M55.875,30.5 L94.4150984,30.5 C97.7204823,30.5 100.408163,27.8142256 100.408163,24.501155 L100.408163,6.49884495 C100.408163,3.18870147 97.7249767,0.5 94.4150984,0.5 L6.40122811,0.5 C3.09584422,0.5 0.408163265,3.18577437 0.408163265,6.49884495 L0.408163265,24.501155 C0.408163265,27.8112985 3.09134979,30.5 6.40122811,30.5 L44.125,30.5 L50,42.25 L55.875,30.5 Z" id="path-6"></path>
        <filter x="-18.0%" y="-26.8%" width="136.0%" height="180.4%" filterUnits="objectBoundingBox" id="filter-8">
            <feOffset dx="0" dy="6" in="SourceAlpha" result="shadowOffsetOuter1"></feOffset>
            <feGaussianBlur stdDeviation="5" in="shadowOffsetOuter1" result="shadowBlurOuter1"></feGaussianBlur>
            <feComposite in="shadowBlurOuter1" in2="SourceAlpha" operator="out" result="shadowBlurOuter1"></feComposite>
            <feColorMatrix values="0 0 0 0 0   0 0 0 0 0   0 0 0 0 0  0 0 0 0.229761096 0" type="matrix" in="shadowBlurOuter1"></feColorMatrix>
        </filter>
        <path d="M55.875,30.5 L94.4150984,30.5 C97.7204823,30.5 100.408163,27.8142256 100.408163,24.501155 L100.408163,6.49884495 C100.408163,3.18870147 97.7249767,0.5 94.4150984,0.5 L6.40122811,0.5 C3.09584422,0.5 0.408163265,3.18577437 0.408163265,6.49884495 L0.408163265,24.501155 C0.408163265,27.8112985 3.09134979,30.5 6.40122811,30.5 L44.125,30.5 L50,42.25 L55.875,30.5 Z" id="path-9"></path>
        <filter x="-18.0%" y="-26.8%" width="136.0%" height="180.4%" filterUnits="objectBoundingBox" id="filter-11">
            <feOffset dx="0" dy="6" in="SourceAlpha" result="shadowOffsetOuter1"></feOffset>
            <feGaussianBlur stdDeviation="5" in="shadowOffsetOuter1" result="shadowBlurOuter1"></feGaussianBlur>
            <feComposite in="shadowBlurOuter1" in2="SourceAlpha" operator="out" result="shadowBlurOuter1"></feComposite>
            <feColorMatrix values="0 0 0 0 0   0 0 0 0 0   0 0 0 0 0  0 0 0 0.229761096 0" type="matrix" in="shadowBlurOuter1"></feColorMatrix>
        </filter>
        <path d="M55.875,30.5 L94.4150984,30.5 C97.7204823,30.5 100.408163,27.8142256 100.408163,24.501155 L100.408163,6.49884495 C100.408163,3.18870147 97.7249767,0.5 94.4150984,0.5 L6.40122811,0.5 C3.09584422,0.5 0.408163265,3.18577437 0.408163265,6.49884495 L0.408163265,24.501155 C0.408163265,27.8112985 3.09134979,30.5 6.40122811,30.5 L44.125,30.5 L50,42.25 L55.875,30.5 Z" id="path-12"></path>
        <filter x="-18.0%" y="-26.8%" width="136.0%" height="180.4%" filterUnits="objectBoundingBox" id="filter-14">
            <feOffset dx="0" dy="6" in="SourceAlpha" result="shadowOffsetOuter1"></feOffset>
            <feGaussianBlur stdDeviation="5" in="shadowOffsetOuter1" result="shadowBlurOuter1"></feGaussianBlur>
            <feComposite in="shadowBlurOuter1" in2="SourceAlpha" operator="out" result="shadowBlurOuter1"></feComposite>
            <feColorMatrix values="0 0 0 0 0   0 0 0 0 0   0 0 0 0 0  0 0 0 0.229761096 0" type="matrix" in="shadowBlurOuter1"></feColorMatrix>
        </filter>
        <path d="M57.875,30.5 L98.4051995,30.5 C101.719651,30.5 104.408163,27.8142256 104.408163,24.501155 L104.408163,6.49884495 C104.408163,3.18870147 101.720545,0.5 98.4051995,0.5 L6.41112706,0.5 C3.09667514,0.5 0.408163265,3.18577437 0.408163265,6.49884495 L0.408163265,24.501155 C0.408163265,27.8112985 3.0957817,30.5 6.41112706,30.5 L46.125,30.5 L52,42.25 L57.875,30.5 Z" id="path-15"></path>
        <filter x="-17.3%" y="-28.7%" width="134.6%" height="186.2%" filterUnits="objectBoundingBox" id="filter-17">
            <feOffset dx="0" dy="6" in="SourceAlpha" result="shadowOffsetOuter1"></feOffset>
            <feGaussianBlur stdDeviation="5" in="shadowOffsetOuter1" result="shadowBlurOuter1"></feGaussianBlur>
            <feComposite in="shadowBlurOuter1" in2="SourceAlpha" operator="out" result="shadowBlurOuter1"></feComposite>
            <feColorMatrix values="0 0 0 0 0   0 0 0 0 0   0 0 0 0 0  0 0 0 0.229761096 0" type="matrix" in="shadowBlurOuter1"></feColorMatrix>
        </filter>
        <path d="M70.875,30.5 L124.398717,30.5 C127.722769,30.5 130.408163,27.8142256 130.408163,24.501155 L130.408163,6.49884495 C130.408163,3.18870147 127.717643,0.5 124.398717,0.5 L6.41760918,0.5 C3.09355769,0.5 0.408163265,3.18577437 0.408163265,6.49884495 L0.408163265,24.501155 C0.408163265,27.8112985 3.09868385,30.5 6.41760918,30.5 L59.125,30.5 L65,42.25 L70.875,30.5 Z" id="path-18"></path>
        <filter x="-13.8%" y="-28.7%" width="127.7%" height="186.2%" filterUnits="objectBoundingBox" id="filter-20">
            <feOffset dx="0" dy="6" in="SourceAlpha" result="shadowOffsetOuter1"></feOffset>
            <feGaussianBlur stdDeviation="5" in="shadowOffsetOuter1" result="shadowBlurOuter1"></feGaussianBlur>
            <feComposite in="shadowBlurOuter1" in2="SourceAlpha" operator="out" result="shadowBlurOuter1"></feComposite>
            <feColorMatrix values="0 0 0 0 0   0 0 0 0 0   0 0 0 0 0  0 0 0 0.229761096 0" type="matrix" in="shadowBlurOuter1"></feColorMatrix>
        </filter>
        <path d="M61.875,30.5 L107.412576,30.5 C110.726344,30.5 113.408163,27.8142256 113.408163,24.501155 L113.408163,6.49884495 C113.408163,3.18870147 110.723847,0.5 107.412576,0.5 L6.40375097,0.5 C3.08998272,0.5 0.408163265,3.18577437 0.408163265,6.49884495 L0.408163265,24.501155 C0.408163265,27.8112985 3.09247932,30.5 6.40375097,30.5 L50.125,30.5 L56,42.25 L61.875,30.5 Z" id="path-21"></path>
        <filter x="-15.9%" y="-28.7%" width="131.9%" height="186.2%" filterUnits="objectBoundingBox" id="filter-23">
            <feOffset dx="0" dy="6" in="SourceAlpha" result="shadowOffsetOuter1"></feOffset>
            <feGaussianBlur stdDeviation="5" in="shadowOffsetOuter1" result="shadowBlurOuter1"></feGaussianBlur>
            <feComposite in="shadowBlurOuter1" in2="SourceAlpha" operator="out" result="shadowBlurOuter1"></feComposite>
            <feColorMatrix values="0 0 0 0 0   0 0 0 0 0   0 0 0 0 0  0 0 0 0.229761096 0" type="matrix" in="shadowBlurOuter1"></feColorMatrix>
        </filter>
        <path d="M61.875,30.5 L107.412576,30.5 C110.726344,30.5 113.408163,27.8142256 113.408163,24.501155 L113.408163,6.49884495 C113.408163,3.18870147 110.723847,0.5 107.412576,0.5 L6.40375097,0.5 C3.08998272,0.5 0.408163265,3.18577437 0.408163265,6.49884495 L0.408163265,24.501155 C0.408163265,27.8112985 3.09247932,30.5 6.40375097,30.5 L50.125,30.5 L56,42.25 L61.875,30.5 Z" id="path-24"></path>
        <filter x="-15.9%" y="-28.7%" width="131.9%" height="186.2%" filterUnits="objectBoundingBox" id="filter-26">
            <feOffset dx="0" dy="6" in="SourceAlpha" result="shadowOffsetOuter1"></feOffset>
            <feGaussianBlur stdDeviation="5" in="shadowOffsetOuter1" result="shadowBlurOuter1"></feGaussianBlur>
            <feComposite in="shadowBlurOuter1" in2="SourceAlpha" operator="out" result="shadowBlurOuter1"></feComposite>
            <feColorMatrix values="0 0 0 0 0   0 0 0 0 0   0 0 0 0 0  0 0 0 0.229761096 0" type="matrix" in="shadowBlurOuter1"></feColorMatrix>
        </filter>
    </defs>
    <g id="Page-1" stroke="none" stroke-width="1" fill="none" fill-rule="evenodd">
        <g id="001" transform="translate(-282.000000, -179.000000)">
            <g id="地点标识" transform="translate(292.000000, 183.000000)">
                <g>
                    <g id="地点1" transform="translate(260.000000, 357.000000)">
                        <g id="Shape">
                            <mask id="mask-3" fill="white">
                                <use xlink:href="#path-2"></use>
                            </mask>
                            <g id="Mask">
                                <use fill="black" fill-opacity="1" filter="url(#filter-4)" xlink:href="#path-2"></use>
                                <use fill="url(#linearGradient-1)" fill-rule="evenodd" xlink:href="#path-2"></use>
                            </g>
                            <polygon fill="url(#linearGradient-5)" opacity="0.200000003" mask="url(#mask-3)" points="83.2 34.3333333 83.2 17.2745098 94.8 17.2745098 94.8 34.3333333 109.3 34.3333333 109.3 11.5882353 118 11.5882353 89 -14 60 11.5882353 68.7 11.5882353 68.7 34.3333333"></polygon>
                        </g>
                        <text id="大润发百货商场" font-family="PingFangSC-Regular, PingFang SC" font-size="12" font-weight="normal" fill="#FFFFFF">
                            <tspan x="9" y="20">大润发百货商场</tspan>
                        </text>
                    </g>
                    <g id="地点2" transform="translate(432.000000, 368.000000)">
                        <g id="Shape">
                            <mask id="mask-7" fill="white">
                                <use xlink:href="#path-6"></use>
                            </mask>
                            <g id="Mask">
                                <use fill="black" fill-opacity="1" filter="url(#filter-8)" xlink:href="#path-6"></use>
                                <use fill="url(#linearGradient-1)" fill-rule="evenodd" xlink:href="#path-6"></use>
                            </g>
                            <polygon fill="url(#linearGradient-5)" opacity="0.200000003" mask="url(#mask-7)" points="83.2 34.3333333 83.2 17.2745098 94.8 17.2745098 94.8 34.3333333 109.3 34.3333333 109.3 11.5882353 118 11.5882353 89 -14 60 11.5882353 68.7 11.5882353 68.7 34.3333333"></polygon>
                        </g>
                        <text id="世纪华庭" font-family="PingFangSC-Regular, PingFang SC" font-size="12" font-weight="normal" fill="#FFFFFF">
                            <tspan x="27" y="20">世纪华庭</tspan>
                        </text>
                    </g>
                    <g id="地点2-copy" transform="translate(507.000000, 169.000000)">
                        <g id="Shape">
                            <mask id="mask-10" fill="white">
                                <use xlink:href="#path-9"></use>
                            </mask>
                            <g id="Mask">
                                <use fill="black" fill-opacity="1" filter="url(#filter-11)" xlink:href="#path-9"></use>
                                <use fill="url(#linearGradient-1)" fill-rule="evenodd" xlink:href="#path-9"></use>
                            </g>
                            <polygon fill="url(#linearGradient-5)" opacity="0.200000003" mask="url(#mask-10)" points="83.2 34.3333333 83.2 17.2745098 94.8 17.2745098 94.8 34.3333333 109.3 34.3333333 109.3 11.5882353 118 11.5882353 89 -14 60 11.5882353 68.7 11.5882353 68.7 34.3333333"></polygon>
                        </g>
                        <text id="美丽华365花园" font-family="PingFangSC-Regular, PingFang SC" font-size="12" font-weight="normal" fill="#FFFFFF">
                            <tspan x="10.2" y="20">美丽华365花园</tspan>
                        </text>
                    </g>
                    <g id="地点4" transform="translate(0.000000, 279.000000)">
                        <g id="Shape">
                            <mask id="mask-13" fill="white">
                                <use xlink:href="#path-12"></use>
                            </mask>
                            <g id="Mask">
                                <use fill="black" fill-opacity="1" filter="url(#filter-14)" xlink:href="#path-12"></use>
                                <use fill="url(#linearGradient-1)" fill-rule="evenodd" xlink:href="#path-12"></use>
                            </g>
                            <polygon fill="url(#linearGradient-5)" opacity="0.200000003" mask="url(#mask-13)" points="83.2 34.3333333 83.2 17.2745098 94.8 17.2745098 94.8 34.3333333 109.3 34.3333333 109.3 11.5882353 118 11.5882353 89 -14 60 11.5882353 68.7 11.5882353 68.7 34.3333333"></polygon>
                        </g>
                        <text id="赛龙豪轩" font-family="PingFangSC-Regular, PingFang SC" font-size="12" font-weight="normal" fill="#FFFFFF">
                            <tspan x="27" y="20">赛龙豪轩</tspan>
                        </text>
                    </g>
                    <g id="地点4-copy" transform="translate(99.000000, 147.000000)">
                        <g id="Shape">
                            <mask id="mask-16" fill="white">
                                <use xlink:href="#path-15"></use>
                            </mask>
                            <g id="Mask">
                                <use fill="black" fill-opacity="1" filter="url(#filter-17)" xlink:href="#path-15"></use>
                                <use fill="url(#linearGradient-1)" fill-rule="evenodd" xlink:href="#path-15"></use>
                            </g>
                            <polygon fill="url(#linearGradient-5)" opacity="0.200000003" mask="url(#mask-16)" points="85.2 34.3333333 85.2 17.2745098 96.8 17.2745098 96.8 34.3333333 111.3 34.3333333 111.3 11.5882353 120 11.5882353 91 -14 62 11.5882353 70.7 11.5882353 70.7 34.3333333"></polygon>
                        </g>
                        <text id="龙华三联社区弓村" font-family="PingFangSC-Regular, PingFang SC" font-size="12" font-weight="normal" fill="#FFFFFF">
                            <tspan x="5" y="20">龙华三联社区弓村</tspan>
                        </text>
                    </g>
                    <g id="地点4-copy-2" transform="translate(230.000000, 43.000000)">
                        <g id="Shape">
                            <mask id="mask-19" fill="white">
                                <use xlink:href="#path-18"></use>
                            </mask>
                            <g id="Mask">
                                <use fill="black" fill-opacity="1" filter="url(#filter-20)" xlink:href="#path-18"></use>
                                <use fill="url(#linearGradient-1)" fill-rule="evenodd" xlink:href="#path-18"></use>
                            </g>
                            <polygon fill="url(#linearGradient-5)" opacity="0.200000003" mask="url(#mask-19)" points="107.2 34.3333333 107.2 17.2745098 118.8 17.2745098 118.8 34.3333333 133.3 34.3333333 133.3 11.5882353 142 11.5882353 113 -14 84 11.5882353 92.7 11.5882353 92.7 34.3333333"></polygon>
                        </g>
                        <text id="龙华三联社区锦绣新村" font-family="PingFangSC-Regular, PingFang SC" font-size="12" font-weight="normal" fill="#FFFFFF">
                            <tspan x="6" y="20">龙华三联社区锦绣新村</tspan>
                        </text>
                    </g>
                    <g id="地点4-copy-3" transform="translate(477.000000, 0.000000)">
                        <g id="Shape">
                            <mask id="mask-22" fill="white">
                                <use xlink:href="#path-21"></use>
                            </mask>
                            <g id="Mask">
                                <use fill="black" fill-opacity="1" filter="url(#filter-23)" xlink:href="#path-21"></use>
                                <use fill="url(#linearGradient-1)" fill-rule="evenodd" xlink:href="#path-21"></use>
                            </g>
                            <polygon fill="url(#linearGradient-5)" opacity="0.200000003" mask="url(#mask-22)" points="98.2 34.3333333 98.2 17.2745098 109.8 17.2745098 109.8 34.3333333 124.3 34.3333333 124.3 11.5882353 133 11.5882353 104 -14 75 11.5882353 83.7 11.5882353 83.7 34.3333333"></polygon>
                        </g>
                        <text id="劲力城市明珠花园" font-family="PingFangSC-Regular, PingFang SC" font-size="12" font-weight="normal" fill="#FFFFFF">
                            <tspan x="9" y="20">劲力城市明珠花园</tspan>
                        </text>
                    </g>
                    <g id="地点4-copy-4" transform="translate(743.000000, 65.000000)">
                        <g id="Shape">
                            <mask id="mask-25" fill="white">
                                <use xlink:href="#path-24"></use>
                            </mask>
                            <g id="Mask">
                                <use fill="black" fill-opacity="1" filter="url(#filter-26)" xlink:href="#path-24"></use>
                                <use fill="url(#linearGradient-1)" fill-rule="evenodd" xlink:href="#path-24"></use>
                            </g>
                            <polygon fill="url(#linearGradient-5)" opacity="0.200000003" mask="url(#mask-25)" points="98.2 34.3333333 98.2 17.2745098 109.8 17.2745098 109.8 34.3333333 124.3 34.3333333 124.3 11.5882353 133 11.5882353 104 -14 75 11.5882353 83.7 11.5882353 83.7 34.3333333"></polygon>
                        </g>
                        <text id="东风汽车龙华工厂" font-family="PingFangSC-Regular, PingFang SC" font-size="12" font-weight="normal" fill="#FFFFFF">
                            <tspan x="9" y="20">东风汽车龙华工厂</tspan>
                        </text>
                    </g>
                </g>
            </g>
        </g>
    </g>
</svg>